<?xml version="1.0" encoding="UTF-8" standalone="no"?>
<!-- Created with Inkscape (http://www.inkscape.org/) -->

<svg
   width="24.284281mm"
   height="40.60463mm"
   viewBox="0 0 24.284281 40.60463"
   version="1.1"
   id="svg1"
   xml:space="preserve"
   inkscape:version="1.4.2 (ebf0e940d0, 2025-05-08)"
   sodipodi:docname="logos.svg"
   xmlns:inkscape="http://www.inkscape.org/namespaces/inkscape"
   xmlns:sodipodi="http://sodipodi.sourceforge.net/DTD/sodipodi-0.dtd"
   xmlns="http://www.w3.org/2000/svg"
   xmlns:svg="http://www.w3.org/2000/svg"><sodipodi:namedview
     id="namedview1"
     pagecolor="#505050"
     bordercolor="#eeeeee"
     borderopacity="1"
     inkscape:showpageshadow="0"
     inkscape:pageopacity="0"
     inkscape:pagecheckerboard="0"
     inkscape:deskcolor="#505050"
     inkscape:document-units="mm"
     inkscape:zoom="2.8284271"
     inkscape:cx="-201.87899"
     inkscape:cy="557.90725"
     inkscape:window-width="1912"
     inkscape:window-height="1035"
     inkscape:window-x="1924"
     inkscape:window-y="4"
     inkscape:window-maximized="0"
     inkscape:current-layer="g9"><inkscape:page
       x="0"
       y="0"
       width="24.284281"
       height="40.60463"
       id="page2"
       margin="0"
       bleed="0" /></sodipodi:namedview><defs
     id="defs1" /><g
     inkscape:label="Layer 1"
     inkscape:groupmode="layer"
     id="layer1"
     transform="translate(95.574053,-119.66401)"><g
       id="g6"
       transform="translate(-135.94396,9.2124649)"><path
         style="opacity:1;fill:#ff6900;fill-opacity:1;stroke:#ff6900;stroke-width:0.264583;stroke-opacity:1"
         d="m 81.816672,79.316545 15.375786,-6.062808 c 2.947052,1.915197 3.733512,5.314991 1.312567,7.000356 -2.359777,1.801006 -8.97837,2.810485 -16.688353,-0.937548 z"
         id="path4"
         sodipodi:nodetypes="cccc" /><path
         style="opacity:1;fill:#ff6900;fill-opacity:1;stroke:#ff6900;stroke-width:0.264583;stroke-opacity:1"
         d="m 81.821417,79.690971 c 4.919732,10.230251 2.897132,17.872417 -2.323093,24.861209 l 22.683816,3.86166 C 99.244691,92.0215 90.769858,85.795268 81.821417,79.690971 Z"
         id="path5"
         sodipodi:nodetypes="cccc" /><path
         style="opacity:1;fill:none;stroke:#ff6900;stroke-width:0.264583;stroke-opacity:1"
         d="m 99.807922,76.636607 c 2.617768,9.804525 4.486638,19.660607 6.175108,29.523213 l -3.7133,2.30256"
         id="path6"
         sodipodi:nodetypes="ccc" /><path
         style="fill:#000000;fill-opacity:1;stroke:#000000;stroke-width:0.264583;stroke-opacity:1"
         d="m -2.525189,91.983842 15.375786,-6.062808 c 2.947052,1.915197 3.733512,5.314991 1.312567,7.000356 -2.359777,1.801006 -8.97837,2.810485 -16.688353,-0.937548 z"
         id="path4-2"
         sodipodi:nodetypes="cccc" /><path
         style="fill:#000000;fill-opacity:1;stroke:#000000;stroke-width:0.264583;stroke-opacity:1"
         d="m -2.520444,92.358268 c 4.919732,10.230252 2.897132,17.872422 -2.323093,24.861212 l 22.683816,3.86166 C 14.90283,104.6888 6.427997,98.462565 -2.520444,92.358268 Z"
         id="path5-7"
         sodipodi:nodetypes="cccc" /><path
         style="fill:none;stroke:#000000;stroke-width:0.264583;stroke-opacity:1"
         d="m 15.466061,89.303904 c 2.617768,9.804525 4.486638,19.660606 6.175108,29.523216 l -3.7133,2.30256"
         id="path6-0"
         sodipodi:nodetypes="ccc" /><g
         id="g9"
         style="stroke:#ff6900;stroke-opacity:1"><path
           style="fill:none;fill-opacity:1;stroke:#000000;stroke-width:0.79375;stroke-dasharray:none;stroke-opacity:1"
           d="m 44.621789,113.19355 7.99804,-2.29184 7.7174,8.65285 -8.13835,2.57247 z"
           id="path7"
           inkscape:export-filename="logo.svg"
           inkscape:export-xdpi="96"
           inkscape:export-ydpi="96" /><path
           style="fill:none;fill-opacity:1;stroke:#000000;stroke-width:0.79375;stroke-dasharray:none;stroke-opacity:1"
           d="m 44.575019,113.19355 c -1.06604,19.8891 5.2192,23.57076 1.59025,36.95001 l -5.3788,-7.10937 c 0.68507,-4.72652 2.052996,-9.55128 4.834556,-12.96748"
           id="path8"
           sodipodi:nodetypes="cccc" /><path
           style="fill:none;fill-opacity:1;stroke:#000000;stroke-width:0.79375;stroke-dasharray:none;stroke-opacity:1"
           d="m 46.237265,150.69345 17.982064,-7.98667 c -1.66025,-11.75605 -8.569101,-8.83238 -11.799461,-19.83627 l 8.281981,-2.6609 c 0.43328,4.24811 -1.328137,7.63123 -2.621027,11.27518"
           id="path9"
           sodipodi:nodetypes="ccccc" /></g><path
         style="opacity:1;fill:#000000;fill-opacity:1;stroke:#000000;stroke-width:0.264583;stroke-opacity:1"
         d="m 44.056279,113.25587 8.166862,9.00516 c 4.122887,11.57669 10.40012,8.67654 11.90625,20.43906 l -17.699685,7.50554 c 3.459438,-13.66992 -3.458083,-18.49084 -2.373427,-36.94976 z"
         id="path10"
         sodipodi:nodetypes="ccccc" /></g></g></svg>
